Patient4_TMGait_0pt5_02_left_34_GRF.mot
version=1
nRows=78
nColumns=19
inDegrees=no
endheader
time	F1x	F1y	F1z	M1x	M1y	M1z	F2x	F2y	F2z	M2x	M2y	M2z	EC1x	EC1y	EC1z	EC2x	EC2y	EC2z
43.74	0.77775	-17.0084	-0.45987	2.8359	1.8111	-21.4136	-35.5713	759.3486	-45.7162	283.3515	62.258	785.6975	-0.0592	0.0182	-0.0073	-0.0462	0.0165	0.9585
43.7531	0.56368	-10.669	-0.20244	1.6396	1.0835	-13.6455	-34.8119	750.3504	-50.0747	280.3531	65.9733	772.1086	-0.0592	0.0182	-0.0073	-0.0462	0.0165	0.9585
43.7661	0.36458	-5.2965	-0.026674	0.62288	0.51785	-7.0335	-33.0826	741.3122	-53.291	277.2577	68.1596	757.8804	-0.0592	0.0182	-0.0073	-0.0462	0.0165	0.9585
43.7792	0.18744	-1.1915	0.075509	-0.15728	0.118	-1.9417	-30.4323	733.4029	-55.1857	274.5125	68.6639	744.339	-0.0592	0.0182	-0.0073	-0.0462	0.0165	0.9585
43.7923	0.065491	1.6552	0.12921	-0.70202	-0.13948	1.6207	-27.0354	727.6761	-55.8322	272.5432	67.634	732.6375	-0.0592	0.0182	-0.0073	-0.0462	0.0165	0.9585
43.8054	-0.027062	3.4272	0.15287	-1.0459	-0.29263	3.8742	-23.0923	724.8684	-55.5177	271.6607	65.4377	723.5622	-0.0592	0.0182	-0.0073	-0.0462	0.0165	0.9585
43.8184	-0.096998	4.3578	0.16734	-1.2307	-0.38292	5.0872	-18.7944	725.3601	-54.5428	272.037	62.4497	717.5264	-0.0592	0.0182	-0.0073	-0.0462	0.0165	0.9585
43.8315	-0.16127	4.68	0.18404	-1.2961	-0.44394	5.5327	-14.3171	729.157	-53.2536	273.6887	59.0777	714.5788	-0.0592	0.0182	-0.0073	-0.0462	0.0165	0.9585
43.8446	-0.24337	4.574	0.20951	-1.2679	-0.502	5.4405	-9.8282	735.8949	-51.8983	276.4848	55.6271	714.4163	-0.0592	0.0182	-0.0073	-0.0462	0.0165	0.9585
43.8576	-0.33659	4.1386	0.23997	-1.1535	-0.56326	4.9326	-5.497	744.8721	-50.709	280.154	52.379	716.4435	-0.0592	0.0182	-0.0073	-0.0462	0.0165	0.9585
43.8707	-0.46066	3.4309	0.27996	-0.94762	-0.64579	4.1054	-1.4591	755.1119	-49.7929	284.314	49.4847	719.8201	-0.0592	0.0182	-0.0073	-0.0462	0.0165	0.9585
43.8838	-0.58968	2.4413	0.32255	-0.63622	-0.73841	2.9535	2.1506	765.442	-49.2239	288.5027	47.0622	723.5437	-0.0592	0.0182	-0.0073	-0.0462	0.0165	0.9585
43.8969	-0.71468	1.1574	0.36574	-0.20794	-0.83111	1.4874	5.2336	774.6123	-48.9789	292.2298	45.1246	726.5361	-0.0592	0.0182	-0.0073	-0.0462	0.0165	0.9585
43.9099	-0.77034	-0.41653	0.38687	0.33689	-0.87364	-0.29198	7.7408	781.4712	-49.0351	295.0419	43.6711	727.8134	-0.0592	0.0182	-0.0073	-0.0462	0.0165	0.9585
43.923	-0.67537	-2.2058	0.37205	0.97184	-0.81563	-2.3049	9.6649	785.1137	-49.2966	296.5843	42.6152	726.5977	-0.0592	0.0182	-0.0073	-0.0462	0.0165	0.9585
43.9361	-0.32489	-4.0037	0.27702	1.619	-0.56727	-4.3294	11.0698	785.0118	-49.6995	296.6468	41.8779	722.4202	-0.0592	0.0182	-0.0073	-0.0462	0.0165	0.9585
43.9491	0.42265	-5.4347	0.076255	2.1333	-0.046852	-5.9706	12.0611	781.1367	-50.1707	295.2104	41.3592	715.2492	-0.0592	0.0182	-0.0073	-0.0462	0.0165	0.9585
43.9622	1.6986	-5.8583	-0.28546	2.2707	0.85363	-6.5298	12.7825	773.9434	-50.7	292.4433	41.0029	705.4515	-0.0592	0.0182	-0.0073	-0.0462	0.0165	0.9585
43.9753	3.6332	-4.3596	-0.83272	1.6809	2.2114	-5.006	13.399	764.2705	-51.2902	288.6615	40.7546	693.7143	-0.0592	0.0182	-0.0073	-0.0462	0.0165	0.9585
43.9884	6.2636	0.30594	-1.591	-0.10838	4.0634	-0.018395	14.0973	753.0822	-51.9765	284.2315	40.5844	680.8229	-0.0592	0.0182	-0.0073	-0.0462	0.0165	0.9585
44.0014	9.5086	9.6192	-2.5225	-3.6593	6.3297	10.0624	15.0507	741.1749	-52.7627	279.4654	40.4353	667.4073	-0.0592	0.0182	-0.0073	-0.0462	0.0165	0.9585
44.0145	13.0452	25.1401	-3.5252	-9.5587	8.7645	26.9688	16.38	728.9961	-53.6113	274.5486	40.2316	653.812	-0.0592	0.0182	-0.0073	-0.0462	0.0165	0.9585
44.0276	16.1967	48.1513	-4.3933	-18.2848	10.8783	52.1437	18.1349	716.5056	-54.4181	269.4895	39.8686	639.9767	-0.0592	0.0182	-0.0073	-0.0462	0.0165	0.9585
44.0406	17.9011	79.189	-4.8603	-30.0293	11.9691	86.2133	20.2327	703.18	-55.0256	264.1175	39.2437	625.4748	-0.0592	0.0182	-0.0073	-0.0462	0.0165	0.9585
44.0537	16.9611	117.5764	-4.5801	-44.5163	11.2015	128.4931	22.5112	688.098	-55.2322	258.1125	38.2493	609.5559	-0.0592	0.0182	-0.0073	-0.0462	0.0165	0.9585
44.0668	12.9265	161.156	-3.1473	-60.8988	7.9571	176.6213	24.7481	670.1786	-54.8466	251.0917	36.8075	591.3452	-0.0592	0.0182	-0.0073	-0.0462	0.0165	0.9585
44.0799	6.7772	206.0962	-0.13626	-77.6988	2.1481	226.3108	26.7242	648.4659	-53.7332	242.7137	34.888	570.074	-0.0592	0.0182	-0.0073	-0.0462	0.0165	0.9585
44.0929	0.21696	247.6542	4.5154	-93.1455	-5.5871	272.1114	28.2705	622.366	-51.8821	232.7691	32.5541	545.2647	-0.0592	0.0182	-0.0073	-0.0462	0.0165	0.9585
44.106	-5.6191	283.1829	10.0111	-106.286	-13.9013	310.894	29.2791	591.9018	-49.3995	221.2651	29.9428	516.9609	-0.0592	0.0182	-0.0073	-0.0462	0.0165	0.9585
44.1191	-10.3615	313.2826	15.6413	-117.3923	-21.8568	343.2295	29.7527	557.6663	-46.4928	208.4107	27.2358	485.6692	-0.0592	0.0182	-0.0073	-0.0462	0.0165	0.9585
44.1321	-14.0514	340.2919	20.6875	-127.3961	-28.6982	371.6712	29.7568	520.5724	-43.3551	194.5287	24.5711	452.1741	-0.0592	0.0182	-0.0073	-0.0462	0.0165	0.9585
44.1452	-16.8416	366.5497	24.817	-137.2047	-34.1226	398.7989	29.4076	481.5107	-40.0832	179.9416	21.9911	417.217	-0.0592	0.0182	-0.0073	-0.0462	0.0165	0.9585
44.1583	-18.8329	393.638	27.8144	-147.4235	-37.9634	426.3352	28.7653	441.189	-36.66	164.9074	19.4579	381.3942	-0.0592	0.0182	-0.0073	-0.0462	0.0165	0.9585
44.1714	-20.154	422.3602	29.837	-158.3245	-40.4453	455.2052	27.8276	400.0488	-33.0783	149.5833	16.9554	345.0775	-0.0592	0.0182	-0.0073	-0.0462	0.0165	0.9585
44.1844	-20.9191	452.9244	31.1526	-169.929	-41.9218	485.6712	26.5176	358.3182	-29.3726	134.0431	14.5174	308.4667	-0.0592	0.0182	-0.0073	-0.0462	0.0165	0.9585
44.1975	-21.3217	485.072	32.2884	-182.0638	-43.0281	517.5663	24.7056	316.1378	-25.6511	118.3288	12.255	271.6956	-0.0592	0.0182	-0.0073	-0.0462	0.0165	0.9585
44.2106	-21.5338	518.2895	33.7306	-194.4743	-44.3511	550.388	22.2725	273.778	-22.0365	102.5327	10.2953	234.9881	-0.0592	0.0182	-0.0073	-0.0462	0.0165	0.9585
44.2236	-21.778	552.1361	35.9195	-206.9454	-46.4275	583.7107	19.1383	231.8531	-18.6645	86.874	8.7693	198.8616	-0.0592	0.0182	-0.0073	-0.0462	0.0165	0.9585
44.2367	-22.1456	586.333	38.9649	-219.3621	-49.4093	617.2299	15.399	191.3124	-15.6348	71.7065	7.7199	164.0737	-0.0592	0.0182	-0.0073	-0.0462	0.0165	0.9585
44.2498	-22.6057	620.7206	42.7656	-231.6771	-53.1835	650.7551	11.3053	153.3372	-13.0154	57.4738	7.1077	131.5917	-0.0592	0.0182	-0.0073	-0.0462	0.0165	0.9585
44.2629	-23.1035	654.9135	46.9394	-243.7828	-57.3428	683.8501	7.2596	119.0189	-10.796	44.5935	6.7768	102.2866	-0.0592	0.0182	-0.0073	-0.0462	0.0165	0.9585
44.2759	-23.5542	688.0802	51.1287	-255.4109	-61.4882	715.6283	3.6469	89.1085	-8.9127	33.3596	6.5356	76.7496	-0.0592	0.0182	-0.0073	-0.0462	0.0165	0.9585
44.289	-23.8971	719.1153	55.0211	-266.1794	-65.2739	744.9658	0.73135	63.9544	-7.2592	23.9126	6.2044	55.2531	-0.0592	0.0182	-0.0073	-0.0462	0.0165	0.9585
44.3021	-24.046	746.8414	58.4959	-275.6677	-68.5398	770.6763	-1.3608	43.5384	-5.7597	16.2533	5.6823	37.7774	-0.0592	0.0182	-0.0073	-0.0462	0.0165	0.9585
44.3151	-23.9586	770.2419	61.4611	-283.5133	-71.1728	791.7625	-2.6332	27.6018	-4.3634	10.2871	4.9324	24.1243	-0.0592	0.0182	-0.0073	-0.0462	0.0165	0.9585
44.3282	-23.5856	788.5986	63.9063	-289.4637	-73.1438	807.5441	-3.1349	15.7405	-3.0774	5.8597	3.9877	13.9523	-0.0592	0.0182	-0.0073	-0.0462	0.0165	0.9585
44.3413	-22.9085	801.5855	65.7873	-293.4136	-74.4024	817.7594	-3.0198	7.4866	-1.9436	2.7878	2.9452	6.8778	-0.0592	0.0182	-0.0073	-0.0462	0.0165	0.9585
44.3544	-21.9192	809.2356	67.1151	-295.3904	-74.9597	822.5012	-2.5361	2.2736	-1.0337	0.85359	1.9619	2.4101	-0.0592	0.0182	-0.0073	-0.0462	0.0165	0.9585
44.3674	-20.6217	811.8631	67.9016	-295.5254	-74.833	822.1179	-1.9247	-0.56732	-0.37851	-0.19767	1.1537	-0.015208	-0.0592	0.0182	-0.0073	-0.0462	0.0165	0.9585
44.3805	-19.0298	810.0127	68.2174	-294.0308	-74.1034	817.1891	-1.3289	-1.7323	0.052754	-0.6261	0.54503	-0.997	-0.0592	0.0182	-0.0073	-0.0462	0.0165	0.9585
44.3936	-17.1602	804.461	68.105	-291.2051	-72.826	808.4948	-0.82402	-1.8386	0.2972	-0.6608	0.13138	-1.0716	-0.0592	0.0182	-0.0073	-0.0462	0.0165	0.9585
44.4066	-15.0653	796.1456	67.6589	-287.4008	-71.1162	796.9614	-0.44925	-1.3531	0.41057	-0.47605	-0.12372	-0.63525	-0.0592	0.0182	-0.0073	-0.0462	0.0165	0.9585
44.4197	-12.7873	786.0626	66.937	-282.9932	-69.0548	783.5404	-0.18451	-0.61842	0.43239	-0.19876	-0.25754	0.0038758	-0.0592	0.0182	-0.0073	-0.0462	0.0165	0.9585
44.4328	-10.3692	775.2316	66.0136	-278.3641	-66.7353	769.2131	-0.033285	0.17066	0.40442	0.09717	-0.30454	0.68865	-0.0592	0.0182	-0.0073	-0.0462	0.0165	0.9585
44.4459	-7.8267	764.603	64.9134	-273.873	-64.1965	754.8876	0.0462	0.88731	0.34806	0.3663	-0.29405	1.301	-0.0592	0.0182	-0.0073	-0.0462	0.0165	0.9585
44.4589	-5.189	754.9638	63.6931	-269.8177	-61.5094	741.33	0.066943	1.4861	0.28473	0.5915	-0.25011	1.8179	-0.0592	0.0182	-0.0073	-0.0462	0.0165	0.9585
44.472	-2.4742	746.8691	62.3714	-266.4055	-58.7074	729.0727	0.05396	1.9509	0.2235	0.7667	-0.19133	2.2265	-0.0592	0.0182	-0.0073	-0.0462	0.0165	0.9585
44.4851	0.30022	740.6109	60.9977	-263.7407	-55.8458	718.4008	0.015451	2.2807	0.17319	0.89277	-0.1321	2.5247	-0.0592	0.0182	-0.0073	-0.0462	0.0165	0.9585
44.4981	3.1236	736.2734	59.5833	-261.8525	-52.9416	709.3969	-0.049864	2.4848	0.12667	0.97381	-0.066131	2.7216	-0.0592	0.0182	-0.0073	-0.0462	0.0165	0.9585
44.5112	6.0007	733.7972	58.1651	-260.7177	-50.028	702.0162	-0.12342	2.5517	0.081235	1.006	0.0058112	2.7908	-0.0592	0.0182	-0.0073	-0.0462	0.0165	0.9585
44.5243	8.9668	733.0643	56.7424	-260.2877	-47.0921	696.1663	-0.22491	2.4711	0.03474	0.98151	0.092811	2.7145	-0.0592	0.0182	-0.0073	-0.0462	0.0165	0.9585
44.5374	12.0507	733.9223	55.3352	-260.4947	-44.1416	691.7326	-0.34306	2.1913	-0.015249	0.87941	0.19702	2.4126	-0.0592	0.0182	-0.0073	-0.0462	0.0165	0.9585
44.5504	15.2702	736.1971	53.9563	-261.2532	-41.1824	688.5875	-0.48446	1.6571	-0.071672	0.67406	0.3211	1.8265	-0.0592	0.0182	-0.0073	-0.0462	0.0165	0.9585
44.5635	18.6255	739.6498	52.6728	-262.4453	-38.2759	686.5589	-0.62962	0.78316	-0.13767	0.33153	0.45936	0.86193	-0.0592	0.0182	-0.0073	-0.0462	0.0165	0.9585
44.5766	22.0887	743.9753	51.568	-263.9262	-35.5075	685.4229	-0.74878	-0.49739	-0.20831	-0.17568	0.59228	-0.55387	-0.0592	0.0182	-0.0073	-0.0462	0.0165	0.9585
44.5896	25.6248	748.7971	50.757	-265.5301	-32.993	684.8936	-0.80028	-2.213	-0.27408	-0.85989	0.68698	-2.4518	-0.0592	0.0182	-0.0073	-0.0462	0.0165	0.9585
44.6027	29.1685	753.6868	50.327	-267.076	-30.8338	684.6443	-0.71224	-4.3174	-0.30943	-1.7012	0.68372	-4.7808	-0.0592	0.0182	-0.0073	-0.0462	0.0165	0.9585
44.6158	32.6322	758.1293	50.3352	-268.3582	-29.1151	684.2859	-0.40502	-6.5977	-0.28145	-2.6148	0.50867	-7.2975	-0.0592	0.0182	-0.0073	-0.0462	0.0165	0.9585
44.6289	35.899	761.524	50.7832	-269.1505	-27.8867	683.3492	0.24295	-8.6268	-0.14122	-3.427	0.062776	-9.5389	-0.0592	0.0182	-0.0073	-0.0462	0.0165	0.9585
44.6419	38.844	763.3176	51.6351	-269.2551	-27.1723	681.394	1.3364	-9.6645	0.16563	-3.8391	-0.74994	-10.6891	-0.0592	0.0182	-0.0073	-0.0462	0.0165	0.9585
44.655	41.376	763.1151	52.8117	-268.5452	-26.9444	678.0877	2.984	-8.6132	0.70067	-3.4032	-2.027	-9.5378	-0.0592	0.0182	-0.0073	-0.0462	0.0165	0.9585
44.6681	43.4589	760.7457	54.1895	-266.9874	-27.1099	673.267	5.2261	-3.9577	1.5124	-1.5038	-3.8232	-4.3953	-0.0592	0.0182	-0.0073	-0.0462	0.0165	0.9585
44.6811	45.1348	756.1754	55.6143	-264.607	-27.5201	666.8372	7.985	6.1818	2.6242	2.6222	-6.1158	6.8333	-0.0592	0.0182	-0.0073	-0.0462	0.0165	0.9585
44.6942	46.5206	749.3554	56.8966	-261.4305	-27.975	658.676	10.9831	23.863	3.9954	9.8093	-8.7321	26.4389	-0.0592	0.0182	-0.0073	-0.0462	0.0165	0.9585
44.7073	47.757	740.0115	57.822	-257.4103	-28.2449	648.4735	13.6237	50.9463	5.4967	20.8087	-11.2755	56.4956	-0.0592	0.0182	-0.0073	-0.0462	0.0165	0.9585
44.7204	48.9553	727.4911	58.1569	-252.3656	-28.0927	635.6086	14.923	88.4254	6.8391	36.0173	-13.0214	98.1054	-0.0592	0.0182	-0.0073	-0.0462	0.0165	0.9585
44.7334	50.1356	710.7149	57.6696	-245.9617	-27.3113	619.1294	13.5005	135.5547	7.572	55.1177	-12.923	150.4522	-0.0592	0.0182	-0.0073	-0.0462	0.0165	0.9585
44.7465	51.2005	688.2762	56.1465	-237.7424	-25.7566	597.8413	8.1387	188.9741	7.0922	76.7254	-9.8456	209.8073	-0.0592	0.0182	-0.0073	-0.0462	0.0165	0.9585
